<svg width="16" height="16" viewBox="0 0 16 16" fill="none" xmlns="http://www.w3.org/2000/svg">
<path d="M16 8C16 12.4183 12.4183 16 8 16C3.58172 16 0 12.4183 0 8C0 3.58172 3.58172 0 8 0C12.4183 0 16 3.58172 16 8ZM2 8C2 11.3137 4.68629 14 8 14C11.3137 14 14 11.3137 14 8C14 4.68629 11.3137 2 8 2C4.68629 2 2 4.68629 2 8Z" fill="#0E8AAA"/>
<mask id="mask0_2_9" style="mask-type:alpha" maskUnits="userSpaceOnUse" x="4" y="4" width="8" height="8">
<rect x="4" y="4" width="8" height="8" fill="#D9D9D9"/>
</mask>
<g mask="url(#mask0_2_9)">
<path d="M6.30344 11.3632V8.3192C6.01081 8.24143 5.76069 8.0793 5.55308 7.83281C5.34547 7.58633 5.24167 7.29876 5.24167 6.97011V4.63678H5.97011V6.97011H6.30344V4.63678H7.02989V6.97011H7.36323V4.63678H8.09167V6.97011C8.09167 7.2985 7.98787 7.586 7.78026 7.83261C7.57265 8.07923 7.32253 8.24136 7.02989 8.31899V11.3632H6.30344ZM9.72844 11.3632V8.69656H8.72844V6.33334C8.72844 5.8616 8.89725 5.4609 9.23488 5.13125C9.5725 4.8016 9.97917 4.63678 10.4549 4.63678V11.3632H9.72844Z" fill="#0E8AAA"/>
</g>
</svg>
