<svg width="387" height="387" viewBox="0 0 387 387" fill="none" xmlns="http://www.w3.org/2000/svg">
<path d="M92.5 153.6L114.7 150.6L104.05 200.7C108.85 200.3 113.25 198.2 117.25 194.4C121.35 190.6 124.55 185.9 126.85 180.3C129.15 174.7 130.3 169.2 130.3 163.8C130.3 157.8 128.75 152.9 125.65 149.1C122.55 145.3 117.9 143.4 111.7 143.4C99.5 143.4 89.95 146.6 83.05 153C76.25 159.4 72.85 168.35 72.85 179.85C72.85 183.55 73.2 186.15 73.9 187.65C74.6 189.05 74.95 189.85 74.95 190.05C69.55 190.05 65.5 188.95 62.8 186.75C60.2 184.45 58.9 180.7 58.9 175.5C58.9 169.1 61.5 162.9 66.7 156.9C72 150.8 78.75 145.9 86.95 142.2C95.15 138.4 103.35 136.5 111.55 136.5C119.45 136.5 126.05 137.85 131.35 140.55C136.65 143.25 140.55 146.85 143.05 151.35C145.65 155.75 146.95 160.65 146.95 166.05C146.95 172.55 145.15 178.9 141.55 185.1C138.05 191.3 133 196.4 126.4 200.4C119.8 204.3 112.2 206.25 103.6 206.25H102.85L93.7 249H72.1L92.5 153.6ZM187.036 249.9C178.636 249.9 172.036 247.5 167.236 242.7C162.536 237.9 160.186 230.25 160.186 219.75C160.186 210.85 161.786 200.85 164.986 189.75C168.186 178.65 172.836 169.15 178.936 161.25C185.136 153.35 192.436 149.4 200.836 149.4C203.836 149.4 206.436 149.8 208.636 150.6C204.236 153.2 199.986 158.55 195.886 166.65C191.886 174.75 188.636 183.8 186.136 193.8C183.636 203.8 182.386 212.65 182.386 220.35C182.386 225.75 183.086 230 184.486 233.1C185.886 236.2 188.086 237.75 191.086 237.75C195.986 237.75 200.836 234.25 205.636 227.25C210.536 220.15 214.536 211.25 217.636 200.55C220.836 189.85 222.436 179.55 222.436 169.65C222.436 163.45 221.886 158.5 220.786 154.8C219.786 151 217.886 148.15 215.086 146.25C212.286 144.35 208.336 143.4 203.236 143.4C195.536 143.4 188.386 145 181.786 148.2C175.186 151.3 169.886 155.8 165.886 161.7C161.986 167.5 160.036 174.25 160.036 181.95C160.036 184.65 160.286 186.65 160.786 187.95C161.286 189.15 161.536 189.85 161.536 190.05C156.536 190.05 152.736 189.05 150.136 187.05C147.636 185.05 146.386 181.85 146.386 177.45C146.386 170.55 149.186 163.95 154.786 157.65C160.486 151.35 167.986 146.25 177.286 142.35C186.686 138.45 196.536 136.5 206.836 136.5C219.336 136.5 228.386 139.9 233.986 146.7C239.586 153.5 242.386 162.9 242.386 174.9C242.386 185.6 240.386 196.75 236.386 208.35C232.386 219.95 226.186 229.8 217.786 237.9C209.486 245.9 199.236 249.9 187.036 249.9ZM280.492 251.7C274.192 251.7 268.642 250.6 263.842 248.4C259.042 246.2 255.342 243.15 252.742 239.25C250.142 235.25 248.842 230.65 248.842 225.45C248.842 221.05 249.742 217.05 251.542 213.45C253.442 209.85 255.942 207 259.042 204.9C262.242 202.8 265.742 201.75 269.542 201.75C273.042 201.75 275.992 202.65 278.392 204.45C280.792 206.15 282.292 208.55 282.892 211.65C277.692 211.65 273.542 213.05 270.442 215.85C267.342 218.55 265.792 222.25 265.792 226.95C265.792 231.25 267.092 234.7 269.692 237.3C272.292 239.9 275.742 241.2 280.042 241.2C285.342 241.2 289.692 239.45 293.092 235.95C296.592 232.35 298.342 227.85 298.342 222.45C298.342 217.75 297.042 213.3 294.442 209.1C291.842 204.9 287.942 199.8 282.742 193.8C277.342 187.6 273.242 182.3 270.442 177.9C267.742 173.4 266.392 168.5 266.392 163.2C266.392 158 267.842 153.35 270.742 149.25C273.642 145.05 277.642 141.75 282.742 139.35C287.842 136.95 293.592 135.75 299.992 135.75C308.092 135.75 314.542 137.65 319.342 141.45C324.242 145.25 326.692 150.35 326.692 156.75C326.692 160.95 325.642 164.35 323.542 166.95C321.442 169.55 318.692 170.85 315.292 170.85C311.492 170.85 308.442 169.3 306.142 166.2C308.042 164.8 309.542 162.95 310.642 160.65C311.742 158.35 312.292 155.95 312.292 153.45C312.292 150.25 311.342 147.7 309.442 145.8C307.542 143.9 304.942 142.95 301.642 142.95C297.642 142.95 294.342 144.4 291.742 147.3C289.242 150.1 287.992 153.7 287.992 158.1C287.992 162.1 289.142 165.85 291.442 169.35C293.742 172.75 297.342 177.15 302.242 182.55C306.242 186.85 309.442 190.55 311.842 193.65C314.342 196.75 316.442 200.35 318.142 204.45C319.942 208.45 320.842 212.8 320.842 217.5C320.842 223.9 319.042 229.7 315.442 234.9C311.942 240.1 307.092 244.2 300.892 247.2C294.792 250.2 287.992 251.7 280.492 251.7Z" fill="#7582FF"/>
<path d="M387 193.5C387 300.367 300.367 387 193.5 387C86.6329 387 0 300.367 0 193.5C0 86.6329 86.6329 0 193.5 0C300.367 0 387 86.6329 387 193.5ZM38.7 193.5C38.7 278.994 108.006 348.3 193.5 348.3C278.994 348.3 348.3 278.994 348.3 193.5C348.3 108.006 278.994 38.7 193.5 38.7C108.006 38.7 38.7 108.006 38.7 193.5Z" fill="#7582FF"/>
</svg>
