<svg width="200" height="200" viewBox="0 0 200 200" fill="none" xmlns="http://www.w3.org/2000/svg">
<path d="M200 100C200 155.228 155.228 200 100 200C44.7715 200 0 155.228 0 100C0 44.7715 44.7715 0 100 0C155.228 0 200 44.7715 200 100ZM25 100C25 141.421 58.5786 175 100 175C141.421 175 175 141.421 175 100C175 58.5786 141.421 25 100 25C58.5786 25 25 58.5786 25 100Z" fill="#0E8AAA"/>
<mask id="mask0_2_8" style="mask-type:alpha" maskUnits="userSpaceOnUse" x="50" y="50" width="100" height="100">
<rect x="50" y="50" width="100" height="100" fill="#D9D9D9"/>
</mask>
<g mask="url(#mask0_2_8)">
<path d="M78.793 142.04V103.99C75.1351 103.018 72.0086 100.991 69.4134 97.9101C66.8184 94.8291 65.5208 91.2345 65.5208 87.1264V57.9597H74.6264V87.1264H78.793V57.9597H87.8737V87.1264H92.0403V57.9597H101.146V87.1264C101.146 91.2311 99.8483 94.8249 97.2532 97.9076C94.6581 100.99 91.5316 103.017 87.8737 103.987V142.04H78.793ZM121.606 142.04V108.707H109.106V79.1667C109.106 73.2699 111.216 68.2612 115.436 64.1406C119.656 60.02 124.74 57.9597 130.686 57.9597V142.04H121.606Z" fill="#0E8AAA"/>
</g>
</svg>
